# xmcd
#
# Track frame offsets: 
#        150
#        43778
#        58815
#        78947
#        92458
#        105765
#        118195
#        131865
#        143329
#        161389
#        177206
#        191286
#        204963
#        219358
#        233069
#        246122
#        261370
#        273912
#        285167
#        298143
#
# Disc length: 4148 seconds
#
# Revision: 0
# Processed by: cddbd v1.5.2PL0 Copyright (c) Steve Scherf et al.
# Submitted via: ExactAudioCopy v0.99pb5
#
DISCID=11103214
DTITLE=Various Artist - Super Hits Blues
DYEAR=2007
DGENRE=Blues
TTITLE0=01 The Allman Brothers Band Dreams
TTITLE1=02 Champion Jack Dupree Blues before sunrise
TTITLE2=03 Buddy Guy Damn right, i've got the blues
TTITLE3=04 Taj Mahal Corinne
TTITLE4=05 Memphis Slim The driving wheel
TTITLE5=06 Hubert Sumlin Willie's back in town
TTITLE6=07 Otis Spann Got my mojo workin'
TTITLE7=08 Eddie "Cleanhead" Vinson Cleanhead blues
TTITLE8=09 Jimmy Dawkins I wonder why you do the things you do to me
TTITLE9=10 Billy Boy Arnold Everyday i have the blues
TTITLE10=11 Bessie Smith Muddy water (A Mississipi moan)
TTITLE11=12 Washboard Sam and His Washboard Band She's making a fool out
TTITLE11=of me
TTITLE12=13 Blind Willie McTell Southern can is mine
TTITLE13=14 Robert Lee McCoy Prowling night hawk
TTITLE14=15 Memphis Minnie Bumble bee blues
TTITLE15=16 Frank Stokes It won't be long now
TTITLE16=17 Memphis Jug Band A black woman is like a black snake
TTITLE17=18 Bukka White Give me an old, old lady
TTITLE18=19 Johnny Shines Baby don't you think i know
TTITLE19=20 Bill "Jazz" Gillum Early in the morning
EXTD=
EXTT0=
EXTT1=
EXTT2=
EXTT3=
EXTT4=
EXTT5=
EXTT6=
EXTT7=
EXTT8=
EXTT9=
EXTT10=
EXTT11=
EXTT12=
EXTT13=
EXTT14=
EXTT15=
EXTT16=
EXTT17=
EXTT18=
EXTT19=
PLAYORDER=
